<svg id="Layer_1" data-name="Layer 1" xmlns="http://www.w3.org/2000/svg" viewBox="0 0 122.88 66.19"><defs><style>.cls-1{fill-rule:evenodd;}</style></defs><title>razor-blade</title><path class="cls-1" d="M12.42,0H110.8c3.2,0,6.64,2.72,5.82,5.82-1.29,4.87-1.91,9,2.3,8.74a3.89,3.89,0,0,1,4,4v29.7a3.88,3.88,0,0,1-4,4c-4.2-.29-3.59,3.31-2.3,8.18.81,3.09-2.62,5.82-5.82,5.82H12.42A5.84,5.84,0,0,1,6.6,60.37c0-4.82,2.77-8.18-2.64-8.18a4,4,0,0,1-4-4V18.53a4,4,0,0,1,4-4c5.41,0,2.64-3.92,2.64-8.74A5.84,5.84,0,0,1,12.42,0Zm1.77,24.26h0a2.4,2.4,0,0,1,2.44,2.33v3.49a5.4,5.4,0,0,0,3.58,1.15,6,6,0,0,0,2.95-.7,6.91,6.91,0,0,1,6.32-4,7.07,7.07,0,0,1,4.36,1.49c.91.71,1.56,1.87,2.49,2.43a5.91,5.91,0,0,0,3,.74,5.3,5.3,0,0,0,3.8-1.35V26.59a2.39,2.39,0,0,1,2.44-2.33h0A2.4,2.4,0,0,1,48,26.59v3.49a5.38,5.38,0,0,0,3.58,1.15,6,6,0,0,0,3-.7,6.91,6.91,0,0,1,6.32-4,7,7,0,0,1,4.35,1.49c2.18,1.7,3.55,5,7.12,2.1V26.59a2.39,2.39,0,0,1,2.44-2.33h0a2.4,2.4,0,0,1,2.44,2.33v3.49a5.66,5.66,0,0,0,3.58,1.15c1.25,0,4.63-.23,5.46-.7a6.9,6.9,0,0,1,6.31-4,7,7,0,0,1,4.36,1.49c.91.71,1.56,1.87,2.5,2.43a5.87,5.87,0,0,0,3,.74,5.3,5.3,0,0,0,3.8-1.35V26.59a2.4,2.4,0,0,1,2.44-2.33h0a2.4,2.4,0,0,1,2.44,2.33V39.78a2.4,2.4,0,0,1-2.44,2.33h0a2.4,2.4,0,0,1-2.44-2.33V36.33a5.3,5.3,0,0,0-3.8-1.35,5.85,5.85,0,0,0-2.91.69c-1.13.63-1.45,1.61-2.47,2.44a7.13,7.13,0,0,1-4.49,1.61,7.22,7.22,0,0,1-6.35-4.06c-.83-.46-4.18-.68-5.42-.68a5.76,5.76,0,0,0-3.58,1.15v3.65a2.4,2.4,0,0,1-2.44,2.33h0a2.4,2.4,0,0,1-2.44-2.33V36.05c-3.55-2.83-4.9.35-7,2.06a7.15,7.15,0,0,1-4.49,1.61,7.24,7.24,0,0,1-6.36-4.06A6,6,0,0,0,51.61,35,5.46,5.46,0,0,0,48,36.13v3.65a2.4,2.4,0,0,1-2.44,2.33h0a2.39,2.39,0,0,1-2.44-2.33V36.33A5.3,5.3,0,0,0,39.35,35a5.89,5.89,0,0,0-2.92.69C35.31,36.3,35,37.28,34,38.11a7.15,7.15,0,0,1-4.49,1.61,7.25,7.25,0,0,1-6.36-4.06A6,6,0,0,0,20.21,35a5.46,5.46,0,0,0-3.58,1.15v3.65a2.4,2.4,0,0,1-2.44,2.33h0a2.4,2.4,0,0,1-2.44-2.33V26.59a2.4,2.4,0,0,1,2.44-2.33Z"/></svg>