<svg id="Layer_1" data-name="Layer 1" xmlns="http://www.w3.org/2000/svg" viewBox="0 0 122.88 101.72"><title>straight-barber-razor</title><path d="M14.55,62.32,79,65.64,60.37,46.92l-9,1.38a1.24,1.24,0,0,1-1.08-.36L13.92,11.05a1.27,1.27,0,0,1,0-1.77L21.07,2C22.37.7,23.19-.14,25.56,0h0c2.52.18,4,1.68,5.52,3.2L93.85,66.4l7.18.37a13.55,13.55,0,0,1,12.81,14.1v.25a12.57,12.57,0,0,1-.41,2.55,12.94,12.94,0,0,1,.3,1.48v.07a13.42,13.42,0,0,1,.13,1.77,14.22,14.22,0,0,1-.11,1.73,3.46,3.46,0,0,1,.44.34l7.71,7.21a3.16,3.16,0,1,1-4.33,4.59L111.24,95a14.69,14.69,0,0,1-1.36,1.58,13.47,13.47,0,0,1-9.56,4H13.73a14.4,14.4,0,0,1-5.38-1,12.73,12.73,0,0,1-6.19-5.14A14.48,14.48,0,0,1,0,86.67a17,17,0,0,1,1.18-6.13,13.37,13.37,0,0,1-.83-5.31V75A13.57,13.57,0,0,1,14.55,62.32Zm94.32,29.3a3.54,3.54,0,0,1,.06-.92,13.44,13.44,0,0,1-9.29,3.08L13.16,89.34A13.47,13.47,0,0,1,3.91,85a12.09,12.09,0,0,0-.11,1.69,10.74,10.74,0,0,0,1.56,5.71A9,9,0,0,0,9.73,96a11,11,0,0,0,4,.71h86.59a9.72,9.72,0,0,0,6.87-2.86,10,10,0,0,0,1.68-2.24Zm-8.69-15.54a4.81,4.81,0,1,1-3.4,1.41,4.77,4.77,0,0,1,3.4-1.41Zm-16.6-6.42h-.22l-69-3.54A9.76,9.76,0,0,0,4.14,75.2v.13a9.78,9.78,0,0,0,9.22,10.23L99.83,90a9.77,9.77,0,0,0,10.22-9.1v-.12a9.78,9.78,0,0,0-9.22-10.23l-17.26-.89Z"/></svg>